<svg width="24" height="24" viewBox="0 0 24 24" fill="none" xmlns="http://www.w3.org/2000/svg">
<path d="M12 4.867C10.998 3.583 9.474 2.75 7.75 2.75C4.67 2.75 2.25 5.389 2.25 8.547C2.25 10.135 2.887 11.718 3.766 13.159C4.65 14.607 5.817 15.972 6.965 17.141C8.39135 18.5835 9.92947 19.9109 11.565 21.111L11.567 21.112C11.6937 21.2018 11.8452 21.25 12.0005 21.25C12.1558 21.25 12.3073 21.2018 12.434 21.112L12.442 21.106L12.463 21.091L12.543 21.033C12.6123 20.983 12.7107 20.91 12.838 20.814C14.324 19.6924 15.7267 18.4645 17.035 17.14C18.183 15.972 19.35 14.607 20.234 13.159C21.114 11.719 21.75 10.135 21.75 8.547C21.75 6.662 21.165 5.189 20.13 4.189C19.1 3.195 17.71 2.75 16.25 2.75C15.737 2.75 15.243 2.824 14.774 2.96L12.827 6.322L12.821 6.335L11.239 9.5L14.332 10.274C14.4485 10.3032 14.5563 10.36 14.6463 10.4395C14.7362 10.519 14.8058 10.619 14.8491 10.731C14.8925 10.843 14.9082 10.9638 14.8952 11.0831C14.8821 11.2025 14.8405 11.317 14.774 11.417L12.774 14.417C12.7199 14.5001 12.6498 14.5717 12.5679 14.6276C12.4859 14.6834 12.3937 14.7225 12.2966 14.7425C12.1994 14.7625 12.0993 14.763 12.0019 14.744C11.9045 14.725 11.8119 14.6869 11.7294 14.6319C11.6469 14.5769 11.5761 14.506 11.5211 14.4235C11.4662 14.3409 11.4281 14.2483 11.4092 14.1509C11.3903 14.0535 11.3909 13.9534 11.4109 13.8563C11.431 13.7591 11.4701 13.6669 11.526 13.585L12.936 11.471L9.968 10.729C9.85904 10.7018 9.75758 10.6504 9.67112 10.5787C9.58467 10.507 9.51541 10.4169 9.46847 10.3148C9.42154 10.2128 9.39811 10.1015 9.39994 9.98921C9.40176 9.87691 9.42878 9.76646 9.479 9.666L11.161 6.3L12 4.867Z" fill="#A78BFA"/>
</svg>
